<svg xmlns="http://www.w3.org/2000/svg" xmlns:xlink="http://www.w3.org/1999/xlink" width="382.612" height="114.3" viewBox="0 0 382.612 114.3"><defs><linearGradient id="a" x2="0" y2="1" gradientUnits="objectBoundingBox"><stop offset="0" stop-color="#fff" stop-opacity="0.502"/><stop offset="0.5" stop-color="#fff" stop-opacity="0.071"/><stop offset="1" stop-color="#fff" stop-opacity="0"/></linearGradient><clipPath id="b"><circle cx="34" cy="34" r="34" transform="translate(517.1 367)"/></clipPath></defs><g transform="translate(-24.544 -60.6)"><g transform="translate(0 22)"><path d="M0,0V79.5" transform="translate(41.944 56)" stroke="#2d90b6" stroke-linecap="round" stroke-width="34.8"/><circle cx="41.9" cy="41.9" r="41.9" transform="translate(24.544 48.1)" fill="#2d90b6"/><line y2="79.5" transform="translate(41.944 56)" stroke="#5ccae9" stroke-linecap="round" stroke-width="31"/><circle cx="40" cy="40" r="40" transform="translate(26.444 50)" fill="#5ccae9"/><line y2="79.5" transform="translate(41.944 56)" stroke="#7ad0ef" stroke-linecap="round" stroke-width="31"/><path d="M40,0A40,40,0,1,1,0,40,40,40,0,0,1,40,0Z" transform="translate(26.444 50)" fill="url(#a)"/><g transform="translate(-484.656 -311)" clip-path="url(#b)"><path d="M551.1,356.8l38.3,22.1-27.914,23.781Z" transform="translate(-1 -1)" fill="#f79ad4"/><path d="M589.4,378.9v44.2l-33.6-13.3Z" fill="#7ad0ef"/><path d="M585.491,421.774l-32.816,19.237-6.535-32.571Z" fill="#f79ad4"/><path d="M551.1,445.2l-38.2-22.1,28.2-22.4Z" fill="#7ad0ef"/><path d="M512.9,423.1V380.9l34.248,12.014Z" fill="#f79ad4"/><path d="M512.9,378.9l38.2-22.1,5.3,35.7Z" fill="#7ad0ef"/><path d="M-1.244,18.382,19.5,0" transform="translate(561.1 384)" stroke="#2d90b6" stroke-linecap="round" stroke-width="1.4"/><path d="M-1.189-.539,24.8,8.2" transform="translate(555.8 409.8)" stroke="#2d90b6" stroke-linecap="round" stroke-width="1.4"/><path d="M-.379-1.689,5.3,25.5" transform="translate(545.8 409.5)" stroke="#2d90b6" stroke-linecap="round" stroke-width="1.4"/><line x1="20.456" y2="18.5" transform="translate(521.7 399.5)" stroke="#2d90b6" stroke-linecap="round" stroke-width="1.4"/><path d="M27,8.857,0,0" transform="translate(521.7 384)" stroke="#2d90b6" stroke-linecap="round" stroke-width="1.4"/><path d="M5.815,26.861,0,0" transform="translate(551.1 367)" stroke="#2d90b6" stroke-linecap="round" stroke-width="1.4"/></g><circle cx="34" cy="34" r="34" transform="translate(32.444 56)" fill="none" stroke="#2d90b6" stroke-width="2"/><path d="M560,396.3l-.4,10-8.8,4.7-8.5-5.3.3-10,8.9-4.7Z" transform="translate(-484.656 -311)" fill="#fff" stroke="#2d90b6" stroke-linejoin="round" stroke-width="1.5"/></g><path d="M615.794,463.1q-4.392,0-6.344-1.281a5.2,5.2,0,0,1-2.379-3.416,22.661,22.661,0,0,1-.427-4.453V411.37a19.691,19.691,0,0,1,.488-4.514,5.474,5.474,0,0,1,2.379-3.355q1.891-1.281,6.405-1.281,4.392,0,6.283,1.342a5.451,5.451,0,0,1,2.318,3.416,23.071,23.071,0,0,1,.427,4.636V454.07a22.665,22.665,0,0,1-.427,4.453,5.036,5.036,0,0,1-2.318,3.355Q620.308,463.1,615.794,463.1Z" transform="translate(-484.656 -311)" fill="none" stroke="#d9629b" stroke-linejoin="round" stroke-width="3.4"/><path d="M615.794,463.1q-4.392,0-6.344-1.281a5.2,5.2,0,0,1-2.379-3.416,22.661,22.661,0,0,1-.427-4.453V411.37a19.691,19.691,0,0,1,.488-4.514,5.474,5.474,0,0,1,2.379-3.355q1.891-1.281,6.405-1.281,4.392,0,6.283,1.342a5.451,5.451,0,0,1,2.318,3.416,23.071,23.071,0,0,1,.427,4.636V454.07a22.665,22.665,0,0,1-.427,4.453,5.036,5.036,0,0,1-2.318,3.355Q620.308,463.1,615.794,463.1Z" transform="translate(-484.656 -311)" fill="#f98cc5"/><path d="M615.794,463.1q-4.392,0-6.344-1.281a5.2,5.2,0,0,1-2.379-3.416,22.661,22.661,0,0,1-.427-4.453V411.37a19.691,19.691,0,0,1,.488-4.514,5.474,5.474,0,0,1,2.379-3.355q1.891-1.281,6.405-1.281,4.392,0,6.283,1.342a5.451,5.451,0,0,1,2.318,3.416,23.071,23.071,0,0,1,.427,4.636V454.07a22.665,22.665,0,0,1-.427,4.453,5.036,5.036,0,0,1-2.318,3.355Q620.308,463.1,615.794,463.1Z" transform="translate(-484.656 -311)" fill="url(#a)"/><path d="M673.79,463.586a31.891,31.891,0,0,1-10.919-2.013,33.516,33.516,0,0,1-10.248-5.978,29.306,29.306,0,0,1-7.5-9.76,30.3,30.3,0,0,1-2.806-13.359,29.9,29.9,0,0,1,2.806-13.3,29.2,29.2,0,0,1,7.442-9.638,33.387,33.387,0,0,1,10.187-5.917,31.575,31.575,0,0,1,10.8-2.013,29.3,29.3,0,0,1,8.113,1.037,26.764,26.764,0,0,1,6.1,2.5,18.551,18.551,0,0,1,3.6,2.562,36.679,36.679,0,0,1,3.66,3.172,5.233,5.233,0,0,1,1.464,4.148,7.381,7.381,0,0,1-.854,2.745,20.985,20.985,0,0,1-1.83,2.867q-3.66,5.124-7.32,4.636a11.39,11.39,0,0,1-3.355-1.22q-1.525-.854-2.928-1.769a15.909,15.909,0,0,0-2.989-1.525,10.153,10.153,0,0,0-3.66-.61,12.665,12.665,0,0,0-6.344,1.586,11.836,11.836,0,0,0-4.453,4.392A12.534,12.534,0,0,0,661.1,432.6a12.3,12.3,0,0,0,1.647,6.344,12.457,12.457,0,0,0,4.392,4.453,12.74,12.74,0,0,0,9.76,1.159,12.1,12.1,0,0,0,2.623-1.159q1.1-.671,1.708-1.037,1.464-.976,2.806-1.769a5.437,5.437,0,0,1,2.806-.793,6.2,6.2,0,0,1,3.538,1.281,20.157,20.157,0,0,1,4.026,4.087,10.485,10.485,0,0,1,2.257,4.758,5.722,5.722,0,0,1-1.037,4.148,14.655,14.655,0,0,1-4.148,3.782,20.353,20.353,0,0,1-3.477,2.2,33.929,33.929,0,0,1-6.1,2.44A27.772,27.772,0,0,1,673.79,463.586Z" transform="translate(-484.656 -311)" fill="none" stroke="#2d90b6" stroke-linejoin="round" stroke-width="3.4"/><path d="M673.79,463.586a31.891,31.891,0,0,1-10.919-2.013,33.516,33.516,0,0,1-10.248-5.978,29.306,29.306,0,0,1-7.5-9.76,30.3,30.3,0,0,1-2.806-13.359,29.9,29.9,0,0,1,2.806-13.3,29.2,29.2,0,0,1,7.442-9.638,33.387,33.387,0,0,1,10.187-5.917,31.575,31.575,0,0,1,10.8-2.013,29.3,29.3,0,0,1,8.113,1.037,26.764,26.764,0,0,1,6.1,2.5,18.551,18.551,0,0,1,3.6,2.562,36.679,36.679,0,0,1,3.66,3.172,5.233,5.233,0,0,1,1.464,4.148,7.381,7.381,0,0,1-.854,2.745,20.985,20.985,0,0,1-1.83,2.867q-3.66,5.124-7.32,4.636a11.39,11.39,0,0,1-3.355-1.22q-1.525-.854-2.928-1.769a15.909,15.909,0,0,0-2.989-1.525,10.153,10.153,0,0,0-3.66-.61,12.665,12.665,0,0,0-6.344,1.586,11.836,11.836,0,0,0-4.453,4.392A12.534,12.534,0,0,0,661.1,432.6a12.3,12.3,0,0,0,1.647,6.344,12.457,12.457,0,0,0,4.392,4.453,12.74,12.74,0,0,0,9.76,1.159,12.1,12.1,0,0,0,2.623-1.159q1.1-.671,1.708-1.037,1.464-.976,2.806-1.769a5.437,5.437,0,0,1,2.806-.793,6.2,6.2,0,0,1,3.538,1.281,20.157,20.157,0,0,1,4.026,4.087,10.485,10.485,0,0,1,2.257,4.758,5.722,5.722,0,0,1-1.037,4.148,14.655,14.655,0,0,1-4.148,3.782,20.353,20.353,0,0,1-3.477,2.2,33.929,33.929,0,0,1-6.1,2.44A27.772,27.772,0,0,1,673.79,463.586Z" transform="translate(-484.656 -311)" fill="#5ccae9"/><path d="M673.79,463.586a31.891,31.891,0,0,1-10.919-2.013,33.516,33.516,0,0,1-10.248-5.978,29.306,29.306,0,0,1-7.5-9.76,30.3,30.3,0,0,1-2.806-13.359,29.9,29.9,0,0,1,2.806-13.3,29.2,29.2,0,0,1,7.442-9.638,33.387,33.387,0,0,1,10.187-5.917,31.575,31.575,0,0,1,10.8-2.013,29.3,29.3,0,0,1,8.113,1.037,26.764,26.764,0,0,1,6.1,2.5,18.551,18.551,0,0,1,3.6,2.562,36.679,36.679,0,0,1,3.66,3.172,5.233,5.233,0,0,1,1.464,4.148,7.381,7.381,0,0,1-.854,2.745,20.985,20.985,0,0,1-1.83,2.867q-3.66,5.124-7.32,4.636a11.39,11.39,0,0,1-3.355-1.22q-1.525-.854-2.928-1.769a15.909,15.909,0,0,0-2.989-1.525,10.153,10.153,0,0,0-3.66-.61,12.665,12.665,0,0,0-6.344,1.586,11.836,11.836,0,0,0-4.453,4.392A12.534,12.534,0,0,0,661.1,432.6a12.3,12.3,0,0,0,1.647,6.344,12.457,12.457,0,0,0,4.392,4.453,12.74,12.74,0,0,0,9.76,1.159,12.1,12.1,0,0,0,2.623-1.159q1.1-.671,1.708-1.037,1.464-.976,2.806-1.769a5.437,5.437,0,0,1,2.806-.793,6.2,6.2,0,0,1,3.538,1.281,20.157,20.157,0,0,1,4.026,4.087,10.485,10.485,0,0,1,2.257,4.758,5.722,5.722,0,0,1-1.037,4.148,14.655,14.655,0,0,1-4.148,3.782,20.353,20.353,0,0,1-3.477,2.2,33.929,33.929,0,0,1-6.1,2.44A27.772,27.772,0,0,1,673.79,463.586Z" transform="translate(-484.656 -311)" fill="url(#a)"/><path d="M741.546,464.074a30.643,30.643,0,0,1-11.407-2.257,34.468,34.468,0,0,1-10.309-6.4,29.942,29.942,0,0,1-10-22.814,30.7,30.7,0,0,1,2.44-12.261,31.985,31.985,0,0,1,6.832-10.065,32.863,32.863,0,0,1,10.065-6.893,29.755,29.755,0,0,1,12.139-2.5,30.753,30.753,0,0,1,15.921,4.209,31.941,31.941,0,0,1,11.407,11.407,32.588,32.588,0,0,1,1.525,29.219,31.414,31.414,0,0,1-7.32,9.943,32.187,32.187,0,0,1-10.126,6.283A30.888,30.888,0,0,1,741.546,464.074Zm-.244-18.422a13.752,13.752,0,0,0,5.978-1.464A13.252,13.252,0,0,0,752.4,439.8a12.57,12.57,0,0,0,2.074-7.442,13.313,13.313,0,0,0-1.708-6.832,12.093,12.093,0,0,0-4.7-4.575,14.05,14.05,0,0,0-6.893-1.647,12.506,12.506,0,0,0-6.527,1.708,13.142,13.142,0,0,0-6.405,11.468,12.916,12.916,0,0,0,2.013,7.381,12.194,12.194,0,0,0,5.063,4.392A14.24,14.24,0,0,0,741.3,445.652Z" transform="translate(-484.656 -311)" fill="none" stroke="#d9629b" stroke-linejoin="round" stroke-width="3.4"/><path d="M741.546,464.074a30.643,30.643,0,0,1-11.407-2.257,34.468,34.468,0,0,1-10.309-6.4,29.942,29.942,0,0,1-10-22.814,30.7,30.7,0,0,1,2.44-12.261,31.985,31.985,0,0,1,6.832-10.065,32.863,32.863,0,0,1,10.065-6.893,29.755,29.755,0,0,1,12.139-2.5,30.753,30.753,0,0,1,15.921,4.209,31.941,31.941,0,0,1,11.407,11.407,32.588,32.588,0,0,1,1.525,29.219,31.414,31.414,0,0,1-7.32,9.943,32.187,32.187,0,0,1-10.126,6.283A30.888,30.888,0,0,1,741.546,464.074Zm-.244-18.422a13.752,13.752,0,0,0,5.978-1.464A13.252,13.252,0,0,0,752.4,439.8a12.57,12.57,0,0,0,2.074-7.442,13.313,13.313,0,0,0-1.708-6.832,12.093,12.093,0,0,0-4.7-4.575,14.05,14.05,0,0,0-6.893-1.647,12.506,12.506,0,0,0-6.527,1.708,13.142,13.142,0,0,0-6.405,11.468,12.916,12.916,0,0,0,2.013,7.381,12.194,12.194,0,0,0,5.063,4.392A14.24,14.24,0,0,0,741.3,445.652Z" transform="translate(-484.656 -311)" fill="#f98cc5"/><path d="M741.546,464.074a30.643,30.643,0,0,1-11.407-2.257,34.468,34.468,0,0,1-10.309-6.4,29.942,29.942,0,0,1-10-22.814,30.7,30.7,0,0,1,2.44-12.261,31.985,31.985,0,0,1,6.832-10.065,32.863,32.863,0,0,1,10.065-6.893,29.755,29.755,0,0,1,12.139-2.5,30.753,30.753,0,0,1,15.921,4.209,31.941,31.941,0,0,1,11.407,11.407,32.588,32.588,0,0,1,1.525,29.219,31.414,31.414,0,0,1-7.32,9.943,32.187,32.187,0,0,1-10.126,6.283A30.888,30.888,0,0,1,741.546,464.074Zm-.244-18.422a13.752,13.752,0,0,0,5.978-1.464A13.252,13.252,0,0,0,752.4,439.8a12.57,12.57,0,0,0,2.074-7.442,13.313,13.313,0,0,0-1.708-6.832,12.093,12.093,0,0,0-4.7-4.575,14.05,14.05,0,0,0-6.893-1.647,12.506,12.506,0,0,0-6.527,1.708,13.142,13.142,0,0,0-6.405,11.468,12.916,12.916,0,0,0,2.013,7.381,12.194,12.194,0,0,0,5.063,4.392A14.24,14.24,0,0,0,741.3,445.652Z" transform="translate(-484.656 -311)" fill="url(#a)"/><path d="M810.888,463.1a63.185,63.185,0,0,1-8.845-.549,19.927,19.927,0,0,1-6.588-2.013A12.122,12.122,0,0,1,791,456.51a18.176,18.176,0,0,1-2.5-6.649,53.954,53.954,0,0,1-.793-10.065V383.432a22.4,22.4,0,0,1,.427-4.514,5.393,5.393,0,0,1,2.379-3.416q1.952-1.342,6.344-1.342t6.283,1.342a5.713,5.713,0,0,1,2.379,3.416,19.694,19.694,0,0,1,.488,4.514v55.51a23.543,23.543,0,0,0,.183,3.233,4.348,4.348,0,0,0,.732,2.013,2.635,2.635,0,0,0,1.525.976,10.91,10.91,0,0,0,2.562.244,12.782,12.782,0,0,1,2.989.366,4.333,4.333,0,0,1,2.623,2.2q1.1,1.83,1.1,6.1,0,4.392-1.1,6.344A4.307,4.307,0,0,1,814,462.732,13.285,13.285,0,0,1,810.888,463.1Z" transform="translate(-484.656 -311)" fill="none" stroke="#2d90b6" stroke-linejoin="round" stroke-width="3.4"/><path d="M810.888,463.1a63.185,63.185,0,0,1-8.845-.549,19.927,19.927,0,0,1-6.588-2.013A12.122,12.122,0,0,1,791,456.51a18.176,18.176,0,0,1-2.5-6.649,53.954,53.954,0,0,1-.793-10.065V383.432a22.4,22.4,0,0,1,.427-4.514,5.393,5.393,0,0,1,2.379-3.416q1.952-1.342,6.344-1.342t6.283,1.342a5.713,5.713,0,0,1,2.379,3.416,19.694,19.694,0,0,1,.488,4.514v55.51a23.543,23.543,0,0,0,.183,3.233,4.348,4.348,0,0,0,.732,2.013,2.635,2.635,0,0,0,1.525.976,10.91,10.91,0,0,0,2.562.244,12.782,12.782,0,0,1,2.989.366,4.333,4.333,0,0,1,2.623,2.2q1.1,1.83,1.1,6.1,0,4.392-1.1,6.344A4.307,4.307,0,0,1,814,462.732,13.285,13.285,0,0,1,810.888,463.1Z" transform="translate(-484.656 -311)" fill="#5ccae9"/><path d="M810.888,463.1a63.185,63.185,0,0,1-8.845-.549,19.927,19.927,0,0,1-6.588-2.013A12.122,12.122,0,0,1,791,456.51a18.176,18.176,0,0,1-2.5-6.649,53.954,53.954,0,0,1-.793-10.065V383.432a22.4,22.4,0,0,1,.427-4.514,5.393,5.393,0,0,1,2.379-3.416q1.952-1.342,6.344-1.342t6.283,1.342a5.713,5.713,0,0,1,2.379,3.416,19.694,19.694,0,0,1,.488,4.514v55.51a23.543,23.543,0,0,0,.183,3.233,4.348,4.348,0,0,0,.732,2.013,2.635,2.635,0,0,0,1.525.976,10.91,10.91,0,0,0,2.562.244,12.782,12.782,0,0,1,2.989.366,4.333,4.333,0,0,1,2.623,2.2q1.1,1.83,1.1,6.1,0,4.392-1.1,6.344A4.307,4.307,0,0,1,814,462.732,13.285,13.285,0,0,1,810.888,463.1Z" transform="translate(-484.656 -311)" fill="url(#a)"/><path d="M880.962,462.976q-4.514,0-6.649-1.586a4.721,4.721,0,0,1-2.135-3.9l1.22-2.074a13.663,13.663,0,0,1-2.806,2.989,20.09,20.09,0,0,1-13.542,4.575,24.285,24.285,0,0,1-10.675-2.44,28.87,28.87,0,0,1-8.967-6.771,33.669,33.669,0,0,1-6.161-9.821,30.183,30.183,0,0,1-2.257-11.59,29.422,29.422,0,0,1,2.257-11.407,31.647,31.647,0,0,1,6.222-9.638,30.816,30.816,0,0,1,8.967-6.649,23.9,23.9,0,0,1,10.614-2.44,20.537,20.537,0,0,1,7.686,1.281,21.1,21.1,0,0,1,5.307,2.989,16.228,16.228,0,0,1,3.233,3.294l-.976-1.708a4.857,4.857,0,0,1,2.013-4.453q2.135-1.525,6.771-1.525,4.392,0,6.283,1.342a5.5,5.5,0,0,1,2.318,3.538,24.258,24.258,0,0,1,.427,4.636V453.7a23.6,23.6,0,0,1-.427,4.514,5.275,5.275,0,0,1-2.318,3.477Q885.476,462.976,880.962,462.976ZM859.734,444.8a10.68,10.68,0,0,0,5.795-1.647,11.82,11.82,0,0,0,4.148-4.453,12.816,12.816,0,0,0,1.525-6.222,12.166,12.166,0,0,0-5.856-10.675,10.987,10.987,0,0,0-5.856-1.647,11.645,11.645,0,0,0-6.283,1.708,12.967,12.967,0,0,0-4.392,4.514,12.3,12.3,0,0,0-1.647,6.344,11.518,11.518,0,0,0,1.647,6.039,12.314,12.314,0,0,0,4.514,4.392A12.626,12.626,0,0,0,859.734,444.8Z" transform="translate(-484.656 -311)" fill="none" stroke="#d9629b" stroke-linejoin="round" stroke-width="3.4"/><path d="M880.962,462.976q-4.514,0-6.649-1.586a4.721,4.721,0,0,1-2.135-3.9l1.22-2.074a13.663,13.663,0,0,1-2.806,2.989,20.09,20.09,0,0,1-13.542,4.575,24.285,24.285,0,0,1-10.675-2.44,28.87,28.87,0,0,1-8.967-6.771,33.669,33.669,0,0,1-6.161-9.821,30.183,30.183,0,0,1-2.257-11.59,29.422,29.422,0,0,1,2.257-11.407,31.647,31.647,0,0,1,6.222-9.638,30.816,30.816,0,0,1,8.967-6.649,23.9,23.9,0,0,1,10.614-2.44,20.537,20.537,0,0,1,7.686,1.281,21.1,21.1,0,0,1,5.307,2.989,16.228,16.228,0,0,1,3.233,3.294l-.976-1.708a4.857,4.857,0,0,1,2.013-4.453q2.135-1.525,6.771-1.525,4.392,0,6.283,1.342a5.5,5.5,0,0,1,2.318,3.538,24.258,24.258,0,0,1,.427,4.636V453.7a23.6,23.6,0,0,1-.427,4.514,5.275,5.275,0,0,1-2.318,3.477Q885.476,462.976,880.962,462.976ZM859.734,444.8a10.68,10.68,0,0,0,5.795-1.647,11.82,11.82,0,0,0,4.148-4.453,12.816,12.816,0,0,0,1.525-6.222,12.166,12.166,0,0,0-5.856-10.675,10.987,10.987,0,0,0-5.856-1.647,11.645,11.645,0,0,0-6.283,1.708,12.967,12.967,0,0,0-4.392,4.514,12.3,12.3,0,0,0-1.647,6.344,11.518,11.518,0,0,0,1.647,6.039,12.314,12.314,0,0,0,4.514,4.392A12.626,12.626,0,0,0,859.734,444.8Z" transform="translate(-484.656 -311)" fill="#f98cc5"/><path d="M880.962,462.976q-4.514,0-6.649-1.586a4.721,4.721,0,0,1-2.135-3.9l1.22-2.074a13.663,13.663,0,0,1-2.806,2.989,20.09,20.09,0,0,1-13.542,4.575,24.285,24.285,0,0,1-10.675-2.44,28.87,28.87,0,0,1-8.967-6.771,33.669,33.669,0,0,1-6.161-9.821,30.183,30.183,0,0,1-2.257-11.59,29.422,29.422,0,0,1,2.257-11.407,31.647,31.647,0,0,1,6.222-9.638,30.816,30.816,0,0,1,8.967-6.649,23.9,23.9,0,0,1,10.614-2.44,20.537,20.537,0,0,1,7.686,1.281,21.1,21.1,0,0,1,5.307,2.989,16.228,16.228,0,0,1,3.233,3.294l-.976-1.708a4.857,4.857,0,0,1,2.013-4.453q2.135-1.525,6.771-1.525,4.392,0,6.283,1.342a5.5,5.5,0,0,1,2.318,3.538,24.258,24.258,0,0,1,.427,4.636V453.7a23.6,23.6,0,0,1-.427,4.514,5.275,5.275,0,0,1-2.318,3.477Q885.476,462.976,880.962,462.976ZM859.734,444.8a10.68,10.68,0,0,0,5.795-1.647,11.82,11.82,0,0,0,4.148-4.453,12.816,12.816,0,0,0,1.525-6.222,12.166,12.166,0,0,0-5.856-10.675,10.987,10.987,0,0,0-5.856-1.647,11.645,11.645,0,0,0-6.283,1.708,12.967,12.967,0,0,0-4.392,4.514,12.3,12.3,0,0,0-1.647,6.344,11.518,11.518,0,0,0,1.647,6.039,12.314,12.314,0,0,0,4.514,4.392A12.626,12.626,0,0,0,859.734,444.8Z" transform="translate(-484.656 -311)" fill="url(#a)"/><path d="M606.4,383.9a10.5,10.5,0,1,0,10.5-10.5A10.5,10.5,0,0,0,606.4,383.9Z" transform="translate(-484.656 -311)" fill="none" stroke="#d9629b" stroke-linejoin="round" stroke-width="3.4"/><path d="M606.4,383.9a10.5,10.5,0,1,0,10.5-10.5A10.5,10.5,0,0,0,606.4,383.9Z" transform="translate(-484.656 -311)" fill="#f98cc5"/><path d="M606.4,383.9a10.5,10.5,0,1,0,10.5-10.5A10.5,10.5,0,0,0,606.4,383.9Z" transform="translate(-484.656 -311)" fill="url(#a)"/></g></svg>